<?xml version="1.0" standalone="no"?>
<!DOCTYPE svg PUBLIC "-//W3C//DTD SVG 20010904//EN"
 "http://www.w3.org/TR/2001/REC-SVG-20010904/DTD/svg10.dtd">
<svg version="1.0" xmlns="http://www.w3.org/2000/svg"
 width="700.000000pt" height="700.000000pt" viewBox="0 0 700.000000 700.000000"
 preserveAspectRatio="xMidYMid meet">
<metadata>
Created by potrace 1.14, written by Peter Selinger 2001-2017
</metadata>
<g transform="translate(0.000000,700.000000) scale(0.100000,-0.100000)"
fill="#000000" stroke="none">
<path d="M5165 5850 c-173 -19 -294 -54 -460 -136 -182 -89 -351 -232 -467
-395 -72 -100 -208 -341 -208 -367 0 -35 43 -72 83 -72 44 0 57 16 147 170 96
164 153 241 247 331 161 154 356 253 580 295 130 24 354 15 486 -19 312 -83
586 -305 731 -595 152 -304 153 -700 1 -1002 -57 -113 -1025 -1782 -1071
-1847 -163 -229 -407 -388 -689 -449 -38 -9 -122 -18 -186 -21 -494 -24 -956
292 -1118 766 -77 225 -79 495 -5 716 35 106 75 184 244 475 153 264 164 296
120 332 -29 23 -85 23 -108 0 -31 -31 -339 -575 -376 -663 -74 -181 -101 -338
-93 -548 4 -117 11 -169 35 -261 123 -477 477 -827 960 -947 96 -24 126 -27
287 -28 194 0 271 11 422 61 103 35 250 110 343 175 102 71 243 216 312 319
62 92 1006 1726 1063 1840 90 179 125 321 132 535 6 187 -8 291 -62 452 -128
384 -419 680 -803 817 -157 56 -383 83 -547 66z"/>
</g>
</svg>
